<mxfile host="app.diagrams.net" modified="2022-05-14T09:02:33.134Z" agent="5.0 (Macintosh; Intel Mac OS X 10_15_7) AppleWebKit/537.36 (KHTML, like Gecko) Chrome/100.0.4896.127 Safari/537.36" etag="4yxrqxPyRabYDgnz2XSr" version="18.0.4" type="github">
  <diagram id="VVRJWI324u3OcMAuvgbn" name="Page-1">
    <mxGraphModel dx="1796" dy="517" grid="1" gridSize="10" guides="1" tooltips="1" connect="1" arrows="1" fold="1" page="1" pageScale="1" pageWidth="850" pageHeight="1100" background="none" math="0" shadow="0">
      <root>
        <mxCell id="0" />
        <mxCell id="1" parent="0" />
        <mxCell id="OU6S-yULbzZccyL7ORFk-14" value="" style="group" vertex="1" connectable="0" parent="1">
          <mxGeometry x="90" y="110" width="315" height="320" as="geometry" />
        </mxCell>
        <mxCell id="OU6S-yULbzZccyL7ORFk-7" value="" style="group;strokeColor=none;" vertex="1" connectable="0" parent="OU6S-yULbzZccyL7ORFk-14">
          <mxGeometry x="70" width="245" height="320" as="geometry" />
        </mxCell>
        <mxCell id="OU6S-yULbzZccyL7ORFk-8" value="" style="edgeStyle=orthogonalEdgeStyle;rounded=0;orthogonalLoop=1;jettySize=auto;html=1;" edge="1" parent="OU6S-yULbzZccyL7ORFk-7" source="OU6S-yULbzZccyL7ORFk-3" target="OU6S-yULbzZccyL7ORFk-4">
          <mxGeometry relative="1" as="geometry" />
        </mxCell>
        <mxCell id="OU6S-yULbzZccyL7ORFk-3" value="&lt;span style=&quot;&quot;&gt;Elastic Search&lt;br&gt;port:9200&lt;br&gt;&lt;/span&gt;" style="rounded=0;whiteSpace=wrap;html=1;" vertex="1" parent="OU6S-yULbzZccyL7ORFk-7">
          <mxGeometry width="120" height="60" as="geometry" />
        </mxCell>
        <mxCell id="OU6S-yULbzZccyL7ORFk-9" value="" style="edgeStyle=orthogonalEdgeStyle;rounded=0;orthogonalLoop=1;jettySize=auto;html=1;" edge="1" parent="OU6S-yULbzZccyL7ORFk-7" source="OU6S-yULbzZccyL7ORFk-4" target="OU6S-yULbzZccyL7ORFk-5">
          <mxGeometry relative="1" as="geometry" />
        </mxCell>
        <mxCell id="OU6S-yULbzZccyL7ORFk-4" value="Kibana&lt;br&gt;port:5601" style="rounded=0;whiteSpace=wrap;html=1;" vertex="1" parent="OU6S-yULbzZccyL7ORFk-7">
          <mxGeometry y="100" width="120" height="60" as="geometry" />
        </mxCell>
        <mxCell id="OU6S-yULbzZccyL7ORFk-19" style="edgeStyle=orthogonalEdgeStyle;rounded=0;orthogonalLoop=1;jettySize=auto;html=1;exitX=1;exitY=0;exitDx=0;exitDy=0;entryX=1;entryY=0.5;entryDx=0;entryDy=0;" edge="1" parent="OU6S-yULbzZccyL7ORFk-7" source="OU6S-yULbzZccyL7ORFk-5" target="OU6S-yULbzZccyL7ORFk-3">
          <mxGeometry relative="1" as="geometry">
            <Array as="points">
              <mxPoint x="90" y="190" />
              <mxPoint x="90" y="180" />
              <mxPoint x="140" y="180" />
              <mxPoint x="140" y="30" />
            </Array>
          </mxGeometry>
        </mxCell>
        <mxCell id="OU6S-yULbzZccyL7ORFk-20" style="edgeStyle=orthogonalEdgeStyle;rounded=0;orthogonalLoop=1;jettySize=auto;html=1;exitX=0.5;exitY=1;exitDx=0;exitDy=0;entryX=0;entryY=0.5;entryDx=0;entryDy=0;entryPerimeter=0;startArrow=classic;startFill=1;" edge="1" parent="OU6S-yULbzZccyL7ORFk-7" source="OU6S-yULbzZccyL7ORFk-5" target="OU6S-yULbzZccyL7ORFk-1">
          <mxGeometry relative="1" as="geometry" />
        </mxCell>
        <mxCell id="OU6S-yULbzZccyL7ORFk-5" value="Metric Beat&lt;br&gt;-deamon" style="rounded=0;whiteSpace=wrap;html=1;" vertex="1" parent="OU6S-yULbzZccyL7ORFk-7">
          <mxGeometry y="190" width="120" height="60" as="geometry" />
        </mxCell>
        <mxCell id="OU6S-yULbzZccyL7ORFk-13" value="" style="group" vertex="1" connectable="0" parent="OU6S-yULbzZccyL7ORFk-7">
          <mxGeometry x="-170" y="-60" width="415" height="380" as="geometry" />
        </mxCell>
        <mxCell id="OU6S-yULbzZccyL7ORFk-1" value="" style="sketch=0;pointerEvents=1;shadow=0;dashed=0;html=1;strokeColor=none;labelPosition=center;verticalLabelPosition=bottom;verticalAlign=top;align=center;fillColor=#505050;shape=mxgraph.mscae.intune.device_os" vertex="1" parent="OU6S-yULbzZccyL7ORFk-13">
          <mxGeometry y="145" width="100" height="90" as="geometry" />
        </mxCell>
        <mxCell id="OU6S-yULbzZccyL7ORFk-15" value="Masternode.host" style="text;html=1;strokeColor=none;fillColor=none;align=center;verticalAlign=middle;whiteSpace=wrap;rounded=0;" vertex="1" parent="OU6S-yULbzZccyL7ORFk-13">
          <mxGeometry y="235" width="60" height="30" as="geometry" />
        </mxCell>
        <mxCell id="OU6S-yULbzZccyL7ORFk-18" style="edgeStyle=orthogonalEdgeStyle;rounded=0;orthogonalLoop=1;jettySize=auto;html=1;exitX=0.5;exitY=0;exitDx=0;exitDy=0;exitPerimeter=0;entryX=0;entryY=0.5;entryDx=0;entryDy=0;" edge="1" parent="OU6S-yULbzZccyL7ORFk-7" source="OU6S-yULbzZccyL7ORFk-1" target="OU6S-yULbzZccyL7ORFk-3">
          <mxGeometry relative="1" as="geometry" />
        </mxCell>
        <mxCell id="OU6S-yULbzZccyL7ORFk-12" value="" style="group" vertex="1" connectable="0" parent="OU6S-yULbzZccyL7ORFk-14">
          <mxGeometry y="115" width="60" height="120" as="geometry" />
        </mxCell>
        <mxCell id="OU6S-yULbzZccyL7ORFk-11" value="Metric Beat waits until ES and KB to get established" style="text;html=1;strokeColor=none;fillColor=none;align=center;verticalAlign=middle;whiteSpace=wrap;rounded=0;" vertex="1" parent="OU6S-yULbzZccyL7ORFk-12">
          <mxGeometry y="90" width="60" height="30" as="geometry" />
        </mxCell>
        <mxCell id="OU6S-yULbzZccyL7ORFk-10" value="Kibana depends on ES to get established" style="text;html=1;strokeColor=none;fillColor=none;align=center;verticalAlign=middle;whiteSpace=wrap;rounded=0;" vertex="1" parent="OU6S-yULbzZccyL7ORFk-12">
          <mxGeometry width="60" height="30" as="geometry" />
        </mxCell>
      </root>
    </mxGraphModel>
  </diagram>
</mxfile>
